<svg viewBox="0 0 968 949" fill="none" xmlns="http://www.w3.org/2000/svg">
  <rect opacity="0.111111" width="415.408" height="436.244" rx="82.0358"
    transform="matrix(-0.304321 0.95257 -0.952395 -0.304866 798.189 289.414)" stroke="#E672BD" stroke-width="0.592481"
    stroke-linecap="round" />
  <rect opacity="0.222222" width="423.612" height="444.448" rx="82.0358"
    transform="matrix(-0.304321 0.95257 -0.952395 -0.304866 795.58 294.594)" stroke="#DA6DC5" stroke-width="0.774782"
    stroke-linecap="round" />
  <rect opacity="0.333333" width="431.815" height="452.651" rx="82.0358"
    transform="matrix(-0.304321 0.95257 -0.952395 -0.304866 792.969 299.775)" stroke="#CE69CE" stroke-width="0.957084"
    stroke-linecap="round" />
  <rect opacity="0.444444" width="440.019" height="460.855" rx="82.0358"
    transform="matrix(-0.304321 0.95257 -0.952395 -0.304866 790.359 304.955)" stroke="#C265D6" stroke-width="1.13939"
    stroke-linecap="round" />
  <rect opacity="0.555556" width="448.222" height="469.058" rx="82.0358"
    transform="matrix(-0.304321 0.95257 -0.952395 -0.304866 787.75 310.136)" stroke="#B660DE" stroke-width="1.32169"
    stroke-linecap="round" />
  <rect opacity="0.666667" width="456.426" height="477.262" rx="82.0358"
    transform="matrix(-0.304321 0.95257 -0.952395 -0.304866 785.141 315.316)" stroke="#AA5CE6" stroke-width="1.50399"
    stroke-linecap="round" />
  <rect opacity="0.777778" width="464.63" height="485.465" rx="82.0358"
    transform="matrix(-0.304321 0.95257 -0.952395 -0.304866 782.529 320.497)" stroke="#9E58EF" stroke-width="1.68629"
    stroke-linecap="round" />
  <rect opacity="0.888889" width="472.833" height="493.669" rx="82.0358"
    transform="matrix(-0.304321 0.95257 -0.952395 -0.304866 779.92 325.677)" stroke="#9253F7" stroke-width="1.86859"
    stroke-linecap="round" />
  <rect width="481.037" height="501.873" rx="82.0358"
    transform="matrix(-0.304321 0.95257 -0.952395 -0.304866 777.311 330.858)" stroke="#864FFF" stroke-width="2.05089"
    stroke-linecap="round" />
</svg>
